<?xml version="1.0" encoding="utf-8"?>
<!-- created with bpmn-js / http://bpmn.io -->
<!DOCTYPE svg PUBLIC "-//W3C//DTD SVG 1.1//EN" "http://www.w3.org/Graphics/SVG/1.1/DTD/svg11.dtd">
<svg xmlns="http://www.w3.org/2000/svg" xmlns:xlink="http://www.w3.org/1999/xlink" width="778" height="132" viewBox="196 174 778 132" version="1.1"><defs><marker id="sequenceflow-end-_ffffff-_9cafcf-a621vhxryy9wdtkd795y9lycp" viewBox="0 0 20 20" refX="11" refY="10" markerWidth="10" markerHeight="10" orient="auto"><path d="M 1 5 L 11 10 L 1 15 Z" style="fill: rgb(156, 175, 207); stroke-width: 1px; stroke-linecap: round; stroke-dasharray: 10000, 1; stroke: rgb(156, 175, 207);"/></marker></defs><g class="djs-group"><g class="djs-element djs-shape" data-element-id="Event_1hqw3i9" style="display: block;" transform="matrix(1 0 0 1 202 222)"><g class="djs-visual"><circle cx="18" cy="18" r="18" style="stroke: rgb(97, 192, 113); stroke-width: 2px; fill: rgb(97, 192, 113); fill-opacity: 0;"/></g><rect class="djs-hit djs-hit-all" x="0" y="0" width="36" height="36" style="fill: none; stroke-opacity: 0; stroke: white; stroke-width: 15px;"/><rect x="-6" y="-6" rx="3" width="48" height="48" class="djs-outline" style="fill: none;"/></g></g><g class="djs-group"><g class="djs-element djs-shape" data-element-id="Activity_14lb8x4" style="display: block;" transform="matrix(1 0 0 1 290 180)"><g class="djs-visual"><rect x="0" y="0" width="120" height="120" rx="10" ry="10" style="stroke: rgb(156, 175, 207); stroke-width: 2px; fill: rgb(255, 255, 255); fill-opacity: 0;"/><text lineHeight="1.2" class="djs-label" style="font-family: Arial, sans-serif; font-size: 12px; font-weight: normal; fill: rgb(0, 0, 0);"><tspan x="60" y="63.599999999999994"/></text><path d="m 15,12 c 0.909,-0.845 1.594,-2.049 1.594,-3.385 0,-2.554 -1.805,-4.62199999 -4.357,-4.62199999 -2.55199998,0 -4.28799998,2.06799999 -4.28799998,4.62199999 0,1.348 0.974,2.562 1.89599998,3.405 -0.52899998,0.187 -5.669,2.097 -5.794,4.7560005 v 6.718 h 17 v -6.718 c 0,-2.2980005 -5.5279996,-4.5950005 -6.0509996,-4.7760005 zm -8,6 l 0,5.5 m 11,0 l 0,-5" style="fill: rgb(255, 255, 255); stroke-width: 0.5px; stroke: rgb(156, 175, 207);"/><path d="m 15,12 m 2.162,1.009 c 0,2.4470005 -2.158,4.4310005 -4.821,4.4310005 -2.66499998,0 -4.822,-1.981 -4.822,-4.4310005 " style="fill: rgb(255, 255, 255); stroke-width: 0.5px; stroke: rgb(156, 175, 207);"/><path d="m 15,12 m -6.9,-3.80 c 0,0 2.25099998,-2.358 4.27399998,-1.177 2.024,1.181 4.221,1.537 4.124,0.965 -0.098,-0.57 -0.117,-3.79099999 -4.191,-4.13599999 -3.57499998,0.001 -4.20799998,3.36699999 -4.20699998,4.34799999 z" style="fill: rgb(156, 175, 207); stroke-width: 0.5px; stroke: rgb(156, 175, 207);"/></g><rect class="djs-hit djs-hit-all" x="0" y="0" width="120" height="120" style="fill: none; stroke-opacity: 0; stroke: white; stroke-width: 15px;"/><rect x="-6" y="-6" rx="3" width="132" height="132" class="djs-outline" style="fill: none;"/></g></g><g class="djs-group"><g class="djs-element djs-shape" data-element-id="Activity_0cix3cu" style="display: block;" transform="matrix(1 0 0 1 540 180)"><g class="djs-visual"><rect x="0" y="0" width="120" height="120" rx="10" ry="10" style="stroke: rgb(156, 175, 207); stroke-width: 2px; fill: rgb(255, 255, 255); fill-opacity: 0;"/><text lineHeight="1.2" class="djs-label" style="font-family: Arial, sans-serif; font-size: 12px; font-weight: normal; fill: rgb(0, 0, 0);"><tspan x="60" y="63.599999999999994"/></text><path d="m 15,12 c 0.909,-0.845 1.594,-2.049 1.594,-3.385 0,-2.554 -1.805,-4.62199999 -4.357,-4.62199999 -2.55199998,0 -4.28799998,2.06799999 -4.28799998,4.62199999 0,1.348 0.974,2.562 1.89599998,3.405 -0.52899998,0.187 -5.669,2.097 -5.794,4.7560005 v 6.718 h 17 v -6.718 c 0,-2.2980005 -5.5279996,-4.5950005 -6.0509996,-4.7760005 zm -8,6 l 0,5.5 m 11,0 l 0,-5" style="fill: rgb(255, 255, 255); stroke-width: 0.5px; stroke: rgb(156, 175, 207);"/><path d="m 15,12 m 2.162,1.009 c 0,2.4470005 -2.158,4.4310005 -4.821,4.4310005 -2.66499998,0 -4.822,-1.981 -4.822,-4.4310005 " style="fill: rgb(255, 255, 255); stroke-width: 0.5px; stroke: rgb(156, 175, 207);"/><path d="m 15,12 m -6.9,-3.80 c 0,0 2.25099998,-2.358 4.27399998,-1.177 2.024,1.181 4.221,1.537 4.124,0.965 -0.098,-0.57 -0.117,-3.79099999 -4.191,-4.13599999 -3.57499998,0.001 -4.20799998,3.36699999 -4.20699998,4.34799999 z" style="fill: rgb(156, 175, 207); stroke-width: 0.5px; stroke: rgb(156, 175, 207);"/></g><rect class="djs-hit djs-hit-all" x="0" y="0" width="120" height="120" style="fill: none; stroke-opacity: 0; stroke: white; stroke-width: 15px;"/><rect x="-6" y="-6" rx="3" width="132" height="132" class="djs-outline" style="fill: none;"/></g></g><g class="djs-group"><g class="djs-element djs-shape" data-element-id="Activity_1k06efz" style="display: block;" transform="matrix(1 0 0 1 730 180)"><g class="djs-visual"><rect x="0" y="0" width="120" height="120" rx="10" ry="10" style="stroke: rgb(156, 175, 207); stroke-width: 2px; fill: rgb(255, 255, 255); fill-opacity: 0;"/><text lineHeight="1.2" class="djs-label" style="font-family: Arial, sans-serif; font-size: 12px; font-weight: normal; fill: rgb(0, 0, 0);"><tspan x="60" y="63.599999999999994"/></text><path d="m 15,12 c 0.909,-0.845 1.594,-2.049 1.594,-3.385 0,-2.554 -1.805,-4.62199999 -4.357,-4.62199999 -2.55199998,0 -4.28799998,2.06799999 -4.28799998,4.62199999 0,1.348 0.974,2.562 1.89599998,3.405 -0.52899998,0.187 -5.669,2.097 -5.794,4.7560005 v 6.718 h 17 v -6.718 c 0,-2.2980005 -5.5279996,-4.5950005 -6.0509996,-4.7760005 zm -8,6 l 0,5.5 m 11,0 l 0,-5" style="fill: rgb(255, 255, 255); stroke-width: 0.5px; stroke: rgb(156, 175, 207);"/><path d="m 15,12 m 2.162,1.009 c 0,2.4470005 -2.158,4.4310005 -4.821,4.4310005 -2.66499998,0 -4.822,-1.981 -4.822,-4.4310005 " style="fill: rgb(255, 255, 255); stroke-width: 0.5px; stroke: rgb(156, 175, 207);"/><path d="m 15,12 m -6.9,-3.80 c 0,0 2.25099998,-2.358 4.27399998,-1.177 2.024,1.181 4.221,1.537 4.124,0.965 -0.098,-0.57 -0.117,-3.79099999 -4.191,-4.13599999 -3.57499998,0.001 -4.20799998,3.36699999 -4.20699998,4.34799999 z" style="fill: rgb(156, 175, 207); stroke-width: 0.5px; stroke: rgb(156, 175, 207);"/></g><rect class="djs-hit djs-hit-all" x="0" y="0" width="120" height="120" style="fill: none; stroke-opacity: 0; stroke: white; stroke-width: 15px;"/><rect x="-6" y="-6" rx="3" width="132" height="132" class="djs-outline" style="fill: none;"/></g></g><g class="djs-group"><g class="djs-element djs-shape" data-element-id="Event_018vllk" style="display: block;" transform="matrix(1 0 0 1 932 222)"><g class="djs-visual"><circle cx="18" cy="18" r="18" style="stroke: rgb(208, 48, 80); stroke-width: 4px; fill: rgb(208, 48, 80); fill-opacity: 0;"/></g><rect class="djs-hit djs-hit-all" x="0" y="0" width="36" height="36" style="fill: none; stroke-opacity: 0; stroke: white; stroke-width: 15px;"/><rect x="-6" y="-6" rx="3" width="48" height="48" class="djs-outline" style="fill: none;"/></g></g><g class="djs-group"><g class="djs-element djs-connection" data-element-id="Flow_1qy6ibb" style="display: block;"><g class="djs-visual"><path d="m 238,240L290,240 " style="fill: none; stroke-width: 2px; stroke: rgb(156, 175, 207); stroke-linejoin: round; marker-end: url('#sequenceflow-end-_ffffff-_9cafcf-a621vhxryy9wdtkd795y9lycp');"/></g><polyline points="238,240 290,240 " class="djs-hit djs-hit-stroke" style="fill: none; stroke-opacity: 0; stroke: white; stroke-width: 15px;"/><rect x="232" y="234" rx="3" width="64" height="12" class="djs-outline" style="fill: none;"/></g></g><g class="djs-group"><g class="djs-element djs-connection" data-element-id="Flow_0fplleo" style="display: block;"><g class="djs-visual"><path d="m 410,240L540,240 " style="fill: none; stroke-width: 2px; stroke: rgb(156, 175, 207); stroke-linejoin: round; marker-end: url('#sequenceflow-end-_ffffff-_9cafcf-a621vhxryy9wdtkd795y9lycp');"/></g><polyline points="410,240 540,240 " class="djs-hit djs-hit-stroke" style="fill: none; stroke-opacity: 0; stroke: white; stroke-width: 15px;"/><rect x="404" y="234" rx="3" width="142" height="12" class="djs-outline" style="fill: none;"/></g></g><g class="djs-group"><g class="djs-element djs-connection" data-element-id="Flow_1audxgs" style="display: block;"><g class="djs-visual"><path d="m 660,240L730,240 " style="fill: none; stroke-width: 2px; stroke: rgb(156, 175, 207); stroke-linejoin: round; marker-end: url('#sequenceflow-end-_ffffff-_9cafcf-a621vhxryy9wdtkd795y9lycp');"/></g><polyline points="660,240 730,240 " class="djs-hit djs-hit-stroke" style="fill: none; stroke-opacity: 0; stroke: white; stroke-width: 15px;"/><rect x="654" y="234" rx="3" width="82" height="12" class="djs-outline" style="fill: none;"/></g></g><g class="djs-group"><g class="djs-element djs-connection" data-element-id="Flow_0bg01b4" style="display: block;"><g class="djs-visual"><path d="m 850,240L932,240 " style="fill: none; stroke-width: 2px; stroke: rgb(156, 175, 207); stroke-linejoin: round; marker-end: url('#sequenceflow-end-_ffffff-_9cafcf-a621vhxryy9wdtkd795y9lycp');"/></g><polyline points="850,240 932,240 " class="djs-hit djs-hit-stroke" style="fill: none; stroke-opacity: 0; stroke: white; stroke-width: 15px;"/><rect x="844" y="234" rx="3" width="94" height="12" class="djs-outline" style="fill: none;"/></g></g></svg>